<svg width="1600" height="600" viewBox="0 0 1600 600" fill="none" xmlns="http://www.w3.org/2000/svg">
<rect width="1600" height="600" fill="#2F303A"/>
<path d="M506.086 234.43C506.201 237.924 508.005 239.672 511.5 239.672C513.29 239.672 514.637 239.106 515.539 237.975C516.456 236.843 517 234.938 517.172 232.26H508.535V226.438H517.172C516.971 223.859 516.406 221.997 515.475 220.852C514.544 219.691 513.255 219.111 511.608 219.111C509.76 219.111 508.378 219.541 507.461 220.4C506.559 221.245 506.079 222.628 506.022 224.547H498.524C498.839 221.038 500.149 218.288 502.455 216.297C504.761 214.292 507.812 213.289 511.608 213.289C514.214 213.289 516.513 213.905 518.504 215.137C520.509 216.368 522.049 218.145 523.123 220.465C524.212 222.771 524.756 225.464 524.756 228.543V230.24C524.756 235.024 523.574 238.755 521.211 241.434C518.848 244.112 515.611 245.451 511.5 245.451C509.022 245.451 506.816 245 504.883 244.098C502.964 243.181 501.46 241.892 500.371 240.23C499.283 238.555 498.681 236.621 498.566 234.43H506.086ZM550.943 216.383C555.011 216.383 558.248 217.6 560.654 220.035C563.074 222.456 564.285 225.628 564.285 229.553C564.285 231.472 563.962 233.219 563.318 234.795C562.688 236.356 561.8 237.688 560.654 238.791C558.233 241.154 554.996 242.336 550.943 242.336V246.289H543.681V242.336C539.57 242.336 536.305 241.154 533.884 238.791C531.464 236.428 530.253 233.363 530.253 229.596C530.253 227.605 530.576 225.8 531.22 224.182C531.865 222.563 532.767 221.181 533.927 220.035C536.362 217.6 539.613 216.383 543.681 216.383V212.43H550.943V216.383ZM543.402 222.441C541.526 222.441 540.043 223.072 538.955 224.332C537.88 225.592 537.343 227.347 537.343 229.596C537.343 231.658 537.887 233.291 538.976 234.494C540.065 235.683 541.633 236.277 543.681 236.277V222.441H543.402ZM550.943 222.441V236.277H551.265C553.055 236.277 554.488 235.69 555.562 234.516C556.651 233.327 557.195 231.673 557.195 229.553C557.195 227.347 556.665 225.614 555.605 224.354C554.559 223.079 553.005 222.441 550.943 222.441ZM590.45 216.383C594.518 216.383 597.755 217.6 600.161 220.035C602.582 222.456 603.792 225.628 603.792 229.553C603.792 231.472 603.47 233.219 602.825 234.795C602.195 236.356 601.307 237.688 600.161 238.791C597.74 241.154 594.503 242.336 590.45 242.336V246.289H583.188V242.336C579.078 242.336 575.812 241.154 573.391 238.791C570.971 236.428 569.761 233.363 569.761 229.596C569.761 227.605 570.083 225.8 570.727 224.182C571.372 222.563 572.274 221.181 573.434 220.035C575.869 217.6 579.121 216.383 583.188 216.383V212.43H590.45V216.383ZM582.909 222.441C581.033 222.441 579.55 223.072 578.462 224.332C577.388 225.592 576.85 227.347 576.85 229.596C576.85 231.658 577.395 233.291 578.483 234.494C579.572 235.683 581.14 236.277 583.188 236.277V222.441H582.909ZM590.45 222.441V236.277H590.772C592.563 236.277 593.995 235.69 595.069 234.516C596.158 233.327 596.702 231.673 596.702 229.553C596.702 227.347 596.172 225.614 595.112 224.354C594.067 223.079 592.513 222.441 590.45 222.441ZM629.592 231.744H617.733V239.199H631.74V245H610.192V213.719H631.783V219.541H617.733V226.137H629.592V231.744ZM648.517 232.625H644.951V245H637.41V213.719H644.951V225.814H647.851L653.867 213.719H662.998L654.404 228.156L664.072 245H655.156L648.517 232.625ZM693.138 219.541H683.749V245H676.208V219.541H666.991V213.719H693.138V219.541ZM717.326 213.719H724.867V245H717.326V225.277L706.09 245H698.549V213.719H706.09V233.463L717.326 213.719ZM732.127 245V213.719H743.363C747.388 213.719 750.446 214.456 752.537 215.932C754.642 217.407 755.695 219.548 755.695 222.355C755.695 223.974 755.323 225.356 754.578 226.502C753.833 227.648 752.737 228.493 751.291 229.037C752.923 229.467 754.177 230.269 755.05 231.443C755.924 232.618 756.361 234.05 756.361 235.74C756.361 238.805 755.387 241.111 753.439 242.658C751.505 244.191 748.634 244.971 744.824 245H732.127ZM739.668 231.701V239.199H744.609C745.97 239.199 747.015 238.891 747.746 238.275C748.476 237.645 748.841 236.764 748.841 235.633C748.841 233.026 747.545 231.715 744.953 231.701H739.668ZM739.668 226.76H743.599C745.246 226.745 746.421 226.445 747.123 225.857C747.825 225.27 748.175 224.404 748.175 223.258C748.175 221.94 747.796 220.995 747.037 220.422C746.278 219.835 745.053 219.541 743.363 219.541H739.668V226.76ZM789.315 245H781.817V231.938H770.71V245H763.169V213.719H770.71V226.137H781.817V213.719H789.315V245ZM804.287 224.482H808.176C810.654 224.482 812.845 224.905 814.75 225.75C816.655 226.595 818.116 227.791 819.133 229.338C820.164 230.87 820.68 232.632 820.68 234.623C820.68 237.702 819.534 240.202 817.243 242.121C814.965 244.04 811.9 245 808.047 245H796.725V213.719H804.287V224.482ZM830.477 245H822.957V213.719H830.477V245ZM804.287 230.283V239.199H808.155C809.687 239.199 810.897 238.77 811.785 237.91C812.688 237.051 813.139 235.941 813.139 234.58C813.139 233.291 812.695 232.253 811.807 231.465C810.919 230.677 809.687 230.283 808.112 230.283H804.287ZM857.158 231.744H845.299V239.199H859.306V245H837.758V213.719H859.349V219.541H845.299V226.137H857.158V231.744ZM886.157 234.387V245H878.616V213.719H891.098C893.49 213.719 895.603 214.163 897.436 215.051C899.284 215.924 900.709 217.178 901.711 218.811C902.728 220.429 903.237 222.27 903.237 224.332C903.237 227.383 902.141 229.825 899.95 231.658C897.773 233.477 894.779 234.387 890.969 234.387H886.157ZM886.157 228.564H891.098C892.559 228.564 893.669 228.199 894.428 227.469C895.202 226.738 895.588 225.707 895.588 224.375C895.588 222.914 895.194 221.747 894.407 220.873C893.619 219.999 892.545 219.555 891.184 219.541H886.157V228.564ZM929.316 231.744H917.457V239.199H931.465V245H909.916V213.719H931.508V219.541H917.457V226.137H929.316V231.744ZM944.568 213.719V239.199H952.345V213.719H959.886V239.199H967.577V213.719H975.075V245H937.026V213.719H944.568ZM1001.76 231.744H989.897V239.199H1003.9V245H982.356V213.719H1003.95V219.541H989.897V226.137H1001.76V231.744ZM1035.76 245H1028.27V231.938H1017.16V245H1009.62V213.719H1017.16V226.137H1028.27V213.719H1035.76V245ZM1061.54 213.719H1069.08V245H1061.54V225.277L1050.31 245H1042.76V213.719H1050.31V233.463L1061.54 213.719ZM1089.81 245V234.021H1085.47L1080.19 245H1072L1078.43 231.465C1075.63 229.646 1074.24 226.975 1074.24 223.451C1074.24 220.357 1075.25 217.965 1077.29 216.275C1079.32 214.571 1082.25 213.719 1086.07 213.719H1097.38V245H1089.81ZM1081.76 224.117C1081.76 225.707 1082.08 226.86 1082.72 227.576C1083.37 228.292 1084.45 228.65 1085.97 228.65H1089.81V219.541H1086.01C1084.51 219.541 1083.42 219.935 1082.74 220.723C1082.09 221.496 1081.76 222.628 1081.76 224.117ZM564.048 312.691H557.281V305H540.244V312.67H533.261L532.724 299.199H534.937C536.097 298.426 537.028 297.101 537.73 295.225C538.446 293.334 538.955 290.627 539.255 287.104L540.222 273.719H561.513V299.199H564.843L564.048 312.691ZM543.466 299.199H553.994V279.541H547.333L546.753 287.361C546.324 292.432 545.228 296.378 543.466 299.199ZM596.745 273.719V305H589.204V279.541H582.179L581.663 290.047C581.448 293.671 580.947 296.564 580.159 298.727C579.371 300.889 578.247 302.472 576.786 303.475C575.339 304.463 573.363 304.971 570.856 305H568.837V299.199L569.889 299.092C571.393 298.877 572.482 297.96 573.155 296.342C573.828 294.709 574.265 291.966 574.466 288.113L575.003 273.719H596.745ZM617.561 305V294.021H613.221L607.936 305H599.75L606.174 291.465C603.381 289.646 601.985 286.975 601.985 283.451C601.985 280.357 603.001 277.965 605.035 276.275C607.069 274.571 609.998 273.719 613.822 273.719H625.123V305H617.561ZM609.504 284.117C609.504 285.707 609.826 286.86 610.471 287.576C611.115 288.292 612.197 288.65 613.715 288.65H617.561V279.541H613.758C612.254 279.541 611.166 279.935 610.492 280.723C609.833 281.496 609.504 282.628 609.504 284.117ZM645.507 305V273.719H656.743C660.768 273.719 663.826 274.456 665.917 275.932C668.022 277.407 669.075 279.548 669.075 282.355C669.075 283.974 668.703 285.356 667.958 286.502C667.213 287.648 666.117 288.493 664.671 289.037C666.304 289.467 667.557 290.269 668.431 291.443C669.304 292.618 669.741 294.05 669.741 295.74C669.741 298.805 668.767 301.111 666.819 302.658C664.886 304.191 662.014 304.971 658.204 305H645.507ZM653.048 291.701V299.199H657.989C659.35 299.199 660.395 298.891 661.126 298.275C661.856 297.645 662.222 296.764 662.222 295.633C662.222 293.026 660.925 291.715 658.333 291.701H653.048ZM653.048 286.76H656.979C658.627 286.745 659.801 286.445 660.503 285.857C661.205 285.27 661.556 284.404 661.556 283.258C661.556 281.94 661.176 280.995 660.417 280.422C659.658 279.835 658.433 279.541 656.743 279.541H653.048V286.76ZM694.317 299.156H683.983L682.178 305H674.121L685.594 273.719H692.684L704.242 305H696.143L694.317 299.156ZM685.787 293.334H692.512L689.139 282.484L685.787 293.334ZM716.572 273.719V299.199H724.349V273.719H731.89V299.199H739.582V273.719H747.08V305H709.031V273.719H716.572ZM773.761 291.744H761.901V299.199H775.909V305H754.36V273.719H775.952V279.541H761.901V286.137H773.761V291.744ZM802.719 279.541H789.119V305H781.578V273.719H802.719V279.541ZM833.826 290.004C833.826 293.055 833.26 295.755 832.129 298.104C830.997 300.452 829.386 302.264 827.295 303.539C825.218 304.799 822.847 305.43 820.183 305.43C817.519 305.43 815.156 304.821 813.093 303.604C811.031 302.372 809.42 300.617 808.259 298.34C807.114 296.062 806.512 293.449 806.455 290.498V288.736C806.455 285.671 807.013 282.971 808.131 280.637C809.262 278.288 810.873 276.476 812.965 275.201C815.07 273.926 817.462 273.289 820.14 273.289C822.79 273.289 825.153 273.919 827.23 275.18C829.307 276.44 830.918 278.238 832.064 280.572C833.224 282.893 833.812 285.557 833.826 288.564V290.004ZM826.156 288.693C826.156 285.585 825.633 283.229 824.588 281.625C823.556 280.007 822.074 279.197 820.14 279.197C816.359 279.197 814.361 282.033 814.146 287.705L814.125 290.004C814.125 293.069 814.633 295.425 815.65 297.072C816.667 298.719 818.178 299.543 820.183 299.543C822.088 299.543 823.556 298.734 824.588 297.115C825.619 295.497 826.142 293.169 826.156 290.133V288.693ZM875.092 279.541H861.536V284.482H865.424C867.902 284.482 870.093 284.905 871.998 285.75C873.903 286.595 875.364 287.791 876.381 289.338C877.413 290.87 877.928 292.632 877.928 294.623C877.928 297.702 876.782 300.202 874.491 302.121C872.213 304.04 869.148 305 865.295 305H853.952V273.719H875.092V279.541ZM861.536 290.283V299.199H865.403C866.935 299.199 868.146 298.77 869.034 297.91C869.936 297.051 870.387 295.941 870.387 294.58C870.387 293.291 869.943 292.253 869.055 291.465C868.167 290.677 866.935 290.283 865.36 290.283H861.536ZM902.439 273.719H909.98V305H902.439V285.277L891.203 305H883.662V273.719H891.203V293.463L902.439 273.719ZM932.472 282.398C932.472 281.41 932.085 280.615 931.312 280.014C930.553 279.412 929.521 279.111 928.218 279.111C927 279.111 926.019 279.405 925.275 279.992C924.544 280.565 924.179 281.324 924.179 282.27H916.659C916.659 280.551 917.146 279.011 918.12 277.65C919.109 276.29 920.498 275.23 922.288 274.471C924.079 273.697 926.055 273.311 928.218 273.311C931.942 273.311 934.835 274.091 936.898 275.652C938.974 277.214 940.013 279.398 940.013 282.205C940.013 283.637 939.59 284.948 938.745 286.137C937.915 287.311 936.762 288.242 935.286 288.93C936.976 289.531 938.265 290.448 939.153 291.68C940.056 292.897 940.507 294.415 940.507 296.234C940.507 299.042 939.39 301.276 937.155 302.938C934.921 304.585 931.942 305.408 928.218 305.408C924.766 305.408 921.901 304.599 919.624 302.98C917.347 301.348 916.208 299.128 916.208 296.32H923.771C923.771 297.251 924.186 298.039 925.017 298.684C925.847 299.314 926.915 299.629 928.218 299.629C929.622 299.629 930.76 299.299 931.634 298.641C932.508 297.982 932.944 297.122 932.944 296.062C932.944 294.516 932.572 293.427 931.827 292.797C931.082 292.152 929.994 291.83 928.562 291.83H924.544V286.244H928.819C931.254 286.173 932.472 284.891 932.472 282.398ZM973.741 305H966.243V291.938H955.135V305H947.594V273.719H955.135V286.137H966.243V273.719H973.741V305ZM1000.57 291.744H988.713V299.199H1002.72V305H981.172V273.719H1002.76V279.541H988.713V286.137H1000.57V291.744ZM1033.74 294.408C1033.64 296.585 1033.05 298.512 1031.98 300.188C1030.91 301.849 1029.39 303.138 1027.45 304.055C1025.51 304.971 1023.3 305.43 1020.81 305.43C1016.7 305.43 1013.46 304.09 1011.1 301.412C1008.73 298.734 1007.55 294.952 1007.55 290.068V288.521C1007.55 285.456 1008.08 282.778 1009.14 280.486C1010.22 278.18 1011.76 276.404 1013.76 275.158C1015.77 273.898 1018.09 273.268 1020.72 273.268C1024.52 273.268 1027.57 274.27 1029.87 276.275C1032.18 278.266 1033.49 281.016 1033.81 284.525H1026.29C1026.23 282.62 1025.75 281.253 1024.85 280.422C1023.94 279.591 1022.57 279.176 1020.72 279.176C1018.85 279.176 1017.47 279.878 1016.6 281.281C1015.72 282.685 1015.26 284.926 1015.22 288.006V290.219C1015.22 293.556 1015.64 295.941 1016.47 297.373C1017.31 298.805 1018.76 299.521 1020.81 299.521C1022.54 299.521 1023.87 299.113 1024.78 298.297C1025.7 297.48 1026.19 296.184 1026.24 294.408H1033.74ZM1057.72 299.156H1047.38L1045.58 305H1037.52L1048.99 273.719H1056.08L1067.64 305H1059.54L1057.72 299.156ZM1049.19 293.334H1055.91L1052.54 282.484L1049.19 293.334Z" fill="white"/>
<g filter="url(#filter0_d_1_20)">
<rect x="700" y="350" width="200" height="50" rx="4" fill="#2196F3"/>
</g>
<path d="M738.944 371.758C738.944 371.326 738.775 370.987 738.436 370.742C738.098 370.492 737.65 370.367 737.092 370.367C736.592 370.367 736.176 370.492 735.842 370.742C735.514 370.987 735.35 371.307 735.35 371.703H733.007C733.007 371.089 733.178 370.536 733.522 370.047C733.871 369.552 734.363 369.167 734.999 368.891C735.639 368.615 736.337 368.477 737.092 368.477C738.405 368.477 739.434 368.758 740.178 369.32C740.923 369.883 741.296 370.68 741.296 371.711C741.296 372.216 741.142 372.685 740.835 373.117C740.533 373.549 740.1 373.896 739.538 374.156C740.163 374.375 740.642 374.708 740.975 375.156C741.309 375.599 741.475 376.151 741.475 376.812C741.475 377.833 741.074 378.646 740.272 379.25C739.475 379.849 738.415 380.148 737.092 380.148C736.264 380.148 735.52 380.008 734.858 379.727C734.197 379.44 733.694 379.052 733.35 378.562C733.012 378.068 732.842 377.495 732.842 376.844H735.202C735.202 377.25 735.379 377.591 735.733 377.867C736.087 378.138 736.54 378.273 737.092 378.273C737.717 378.273 738.21 378.133 738.569 377.852C738.934 377.57 739.116 377.214 739.116 376.781C739.116 376.188 738.954 375.763 738.632 375.508C738.309 375.247 737.837 375.117 737.217 375.117H735.819V373.281H737.264C738.384 373.266 738.944 372.758 738.944 371.758ZM748.92 380C748.816 379.797 748.74 379.544 748.693 379.242C748.146 379.852 747.435 380.156 746.56 380.156C745.732 380.156 745.045 379.917 744.498 379.438C743.956 378.958 743.685 378.354 743.685 377.625C743.685 376.729 744.016 376.042 744.677 375.562C745.344 375.083 746.305 374.841 747.56 374.836H748.599V374.352C748.599 373.961 748.498 373.648 748.295 373.414C748.097 373.18 747.782 373.062 747.349 373.062C746.969 373.062 746.67 373.154 746.451 373.336C746.237 373.518 746.131 373.768 746.131 374.086H743.873C743.873 373.596 744.024 373.143 744.326 372.727C744.628 372.31 745.055 371.984 745.607 371.75C746.159 371.51 746.779 371.391 747.467 371.391C748.508 371.391 749.334 371.654 749.943 372.18C750.558 372.701 750.865 373.435 750.865 374.383V378.047C750.87 378.849 750.982 379.456 751.201 379.867V380H748.92ZM747.052 378.43C747.386 378.43 747.693 378.357 747.974 378.211C748.256 378.06 748.464 377.859 748.599 377.609V376.156H747.756C746.625 376.156 746.024 376.547 745.951 377.328L745.943 377.461C745.943 377.742 746.042 377.974 746.24 378.156C746.438 378.339 746.709 378.43 747.052 378.43ZM756.872 376.883H755.966V380H753.708V371.547H755.966V374.727H756.77L758.614 371.547H761.466L758.7 375.57L761.723 380H758.716L756.872 376.883ZM768.433 380C768.329 379.797 768.254 379.544 768.207 379.242C767.66 379.852 766.949 380.156 766.074 380.156C765.246 380.156 764.558 379.917 764.012 379.438C763.47 378.958 763.199 378.354 763.199 377.625C763.199 376.729 763.53 376.042 764.191 375.562C764.858 375.083 765.819 374.841 767.074 374.836H768.113V374.352C768.113 373.961 768.012 373.648 767.808 373.414C767.611 373.18 767.295 373.062 766.863 373.062C766.483 373.062 766.183 373.154 765.965 373.336C765.751 373.518 765.644 373.768 765.644 374.086H763.387C763.387 373.596 763.538 373.143 763.84 372.727C764.142 372.31 764.569 371.984 765.121 371.75C765.673 371.51 766.293 371.391 766.98 371.391C768.022 371.391 768.847 371.654 769.457 372.18C770.071 372.701 770.379 373.435 770.379 374.383V378.047C770.384 378.849 770.496 379.456 770.715 379.867V380H768.433ZM766.566 378.43C766.9 378.43 767.207 378.357 767.488 378.211C767.769 378.06 767.978 377.859 768.113 377.609V376.156H767.269C766.139 376.156 765.538 376.547 765.465 377.328L765.457 377.461C765.457 377.742 765.556 377.974 765.754 378.156C765.952 378.339 766.222 378.43 766.566 378.43ZM777.511 374.039C777.511 373.742 777.412 373.513 777.214 373.352C777.021 373.185 776.745 373.102 776.386 373.102C776.016 373.102 775.714 373.18 775.479 373.336C775.25 373.487 775.136 373.703 775.136 373.984H772.878C772.878 373.219 773.196 372.596 773.831 372.117C774.466 371.638 775.279 371.398 776.268 371.398C777.357 371.398 778.211 371.612 778.831 372.039C779.456 372.466 779.768 373.073 779.768 373.859C779.768 374.234 779.654 374.581 779.425 374.898C779.201 375.211 778.883 375.461 778.472 375.648C779.435 375.987 779.917 376.641 779.917 377.609C779.917 378.385 779.584 379.005 778.917 379.469C778.255 379.927 777.373 380.156 776.268 380.156C775.242 380.156 774.399 379.917 773.737 379.438C773.076 378.958 772.745 378.312 772.745 377.5H775.003C775.003 377.786 775.13 378.018 775.386 378.195C775.641 378.372 775.974 378.461 776.386 378.461C776.787 378.461 777.099 378.367 777.323 378.18C777.547 377.992 777.659 377.747 777.659 377.445C777.659 377.076 777.552 376.812 777.339 376.656C777.125 376.495 776.805 376.414 776.378 376.414H775.151V374.945H776.456C777.159 374.924 777.511 374.622 777.511 374.039ZM787.15 380C787.046 379.797 786.971 379.544 786.924 379.242C786.377 379.852 785.666 380.156 784.791 380.156C783.963 380.156 783.275 379.917 782.728 379.438C782.187 378.958 781.916 378.354 781.916 377.625C781.916 376.729 782.247 376.042 782.908 375.562C783.575 375.083 784.536 374.841 785.791 374.836H786.83V374.352C786.83 373.961 786.728 373.648 786.525 373.414C786.327 373.18 786.012 373.062 785.58 373.062C785.2 373.062 784.9 373.154 784.682 373.336C784.468 373.518 784.361 373.768 784.361 374.086H782.103C782.103 373.596 782.254 373.143 782.557 372.727C782.859 372.31 783.286 371.984 783.838 371.75C784.39 371.51 785.01 371.391 785.697 371.391C786.739 371.391 787.564 371.654 788.174 372.18C788.788 372.701 789.096 373.435 789.096 374.383V378.047C789.101 378.849 789.213 379.456 789.432 379.867V380H787.15ZM785.283 378.43C785.616 378.43 785.924 378.357 786.205 378.211C786.486 378.06 786.695 377.859 786.83 377.609V376.156H785.986C784.856 376.156 784.254 376.547 784.182 377.328L784.174 377.461C784.174 377.742 784.273 377.974 784.471 378.156C784.669 378.339 784.939 378.43 785.283 378.43ZM798.681 373.359H795.97V380H793.704V373.359H791.04V371.547H798.681V373.359ZM803.195 374.023H804.812C805.542 374.023 806.182 374.146 806.734 374.391C807.286 374.635 807.708 374.987 808 375.445C808.297 375.898 808.445 376.427 808.445 377.031C808.445 377.922 808.115 378.641 807.453 379.188C806.797 379.729 805.901 380 804.766 380H800.93V371.547H803.195V374.023ZM803.195 375.836V378.195H804.797C805.245 378.195 805.589 378.091 805.828 377.883C806.068 377.674 806.188 377.391 806.188 377.031C806.188 376.667 806.07 376.378 805.836 376.164C805.602 375.945 805.255 375.836 804.797 375.836H803.195ZM818.779 376.805L820.342 371.547H822.764L819.365 381.312L819.178 381.758C818.673 382.862 817.839 383.414 816.678 383.414C816.35 383.414 816.016 383.365 815.678 383.266V381.555L816.022 381.562C816.449 381.562 816.766 381.497 816.975 381.367C817.188 381.237 817.355 381.021 817.475 380.719L817.74 380.023L814.779 371.547H817.209L818.779 376.805ZM828.021 378.336C828.437 378.336 828.776 378.221 829.036 377.992C829.297 377.763 829.432 377.458 829.442 377.078H831.56C831.554 377.651 831.398 378.177 831.091 378.656C830.784 379.13 830.362 379.5 829.825 379.766C829.294 380.026 828.706 380.156 828.06 380.156C826.851 380.156 825.898 379.773 825.2 379.008C824.502 378.237 824.153 377.174 824.153 375.82V375.672C824.153 374.37 824.5 373.331 825.192 372.555C825.885 371.779 826.836 371.391 828.044 371.391C829.101 371.391 829.948 371.693 830.583 372.297C831.224 372.896 831.549 373.695 831.56 374.695H829.442C829.432 374.258 829.297 373.904 829.036 373.633C828.776 373.357 828.432 373.219 828.005 373.219C827.479 373.219 827.081 373.411 826.81 373.797C826.544 374.177 826.411 374.797 826.411 375.656V375.891C826.411 376.76 826.544 377.385 826.81 377.766C827.075 378.146 827.479 378.336 828.021 378.336ZM841.16 371.547V380H838.902V373.375H836.91L836.77 375.984C836.681 377.375 836.408 378.388 835.949 379.023C835.491 379.659 834.809 379.984 833.902 380H833.137L833.113 378.164L833.395 378.141C833.801 378.109 834.098 377.87 834.285 377.422C834.473 376.974 834.59 376.211 834.637 375.133L834.793 371.547H841.16ZM847.019 376.805L848.581 371.547H851.003L847.605 381.312L847.417 381.758C846.912 382.862 846.079 383.414 844.917 383.414C844.589 383.414 844.256 383.365 843.917 383.266V381.555L844.261 381.562C844.688 381.562 845.006 381.497 845.214 381.367C845.428 381.237 845.594 381.021 845.714 380.719L845.98 380.023L843.019 371.547H845.448L847.019 376.805ZM858.612 373.375H855.112V380H852.854V371.547H858.612V373.375ZM863.673 376.805L865.236 371.547H867.658L864.259 381.312L864.072 381.758C863.566 382.862 862.733 383.414 861.572 383.414C861.243 383.414 860.91 383.365 860.572 383.266V381.555L860.915 381.562C861.342 381.562 861.66 381.497 861.868 381.367C862.082 381.237 862.249 381.021 862.368 380.719L862.634 380.023L859.673 371.547H862.103L863.673 376.805Z" fill="white"/>
<defs>
<filter id="filter0_d_1_20" x="696" y="350" width="208" height="58" filterUnits="userSpaceOnUse" color-interpolation-filters="sRGB">
<feFlood flood-opacity="0" result="BackgroundImageFix"/>
<feColorMatrix in="SourceAlpha" type="matrix" values="0 0 0 0 0 0 0 0 0 0 0 0 0 0 0 0 0 0 127 0" result="hardAlpha"/>
<feOffset dy="4"/>
<feGaussianBlur stdDeviation="2"/>
<feColorMatrix type="matrix" values="0 0 0 0 0 0 0 0 0 0 0 0 0 0 0 0 0 0 0.15 0"/>
<feBlend mode="normal" in2="BackgroundImageFix" result="effect1_dropShadow_1_20"/>
<feBlend mode="normal" in="SourceGraphic" in2="effect1_dropShadow_1_20" result="shape"/>
</filter>
</defs>
</svg>
